<mxfile host="app.diagrams.net" modified="2023-10-28T19:52:16.109Z" agent="Mozilla/5.0 (Windows NT 10.0; Win64; x64) AppleWebKit/537.36 (KHTML, like Gecko) Chrome/118.0.0.0 Safari/537.36" version="22.0.8" etag="v9ZvLvbkM3CNkZxKMIWs" type="github">
  <diagram name="PÃ¡gina-1" id="tkp6_CJDqqw6_vOnDFQq">
    <mxGraphModel>
      <root>
        <mxCell id="0" />
        <mxCell id="1" parent="0" />
      </root>
    </mxGraphModel>
  </diagram>
</mxfile>
